<svg width="34" height="34" viewBox="0 0 34 34" fill="none" xmlns="http://www.w3.org/2000/svg">
<mask id="path-1-inside-1_0_300" fill="white">
<path fill-rule="evenodd" clip-rule="evenodd" d="M17 31.1668C9.17575 31.1668 2.83333 24.8244 2.83333 17.0002C2.83333 9.17591 9.17575 2.8335 17 2.8335C24.8242 2.8335 31.1667 9.17591 31.1667 17.0002C31.1667 24.8244 24.8242 31.1668 17 31.1668ZM15.5876 22.6668L25.6034 12.6496L23.6002 10.6464L15.5876 18.6605L11.5798 14.6527L9.57666 16.6559L15.5876 22.6668Z"/>
</mask>
<path fill-rule="evenodd" clip-rule="evenodd" d="M17 31.1668C9.17575 31.1668 2.83333 24.8244 2.83333 17.0002C2.83333 9.17591 9.17575 2.8335 17 2.8335C24.8242 2.8335 31.1667 9.17591 31.1667 17.0002C31.1667 24.8244 24.8242 31.1668 17 31.1668ZM15.5876 22.6668L25.6034 12.6496L23.6002 10.6464L15.5876 18.6605L11.5798 14.6527L9.57666 16.6559L15.5876 22.6668Z" fill="#181D1F"/>
<path d="M15.5876 22.6668L11.3449 26.9095L15.5879 31.1524L19.8305 26.9092L15.5876 22.6668ZM25.6034 12.6496L29.8464 16.8919L34.0884 12.6493L29.8461 8.40694L25.6034 12.6496ZM23.6002 10.6464L27.8429 6.40377L23.5999 2.16076L19.3572 6.40415L23.6002 10.6464ZM15.5876 18.6605L11.3449 22.9031L15.588 27.1462L19.8306 22.9028L15.5876 18.6605ZM11.5798 14.6527L15.8225 10.4101L11.5798 6.16746L7.33719 10.4101L11.5798 14.6527ZM9.57666 16.6559L5.33402 12.4133L1.09138 16.6559L5.33402 20.8986L9.57666 16.6559ZM17 25.1668C12.4895 25.1668 8.83333 21.5107 8.83333 17.0002H-3.16667C-3.16667 28.1381 5.86204 37.1668 17 37.1668V25.1668ZM8.83333 17.0002C8.83333 12.4896 12.4895 8.8335 17 8.8335V-3.1665C5.86204 -3.1665 -3.16667 5.8622 -3.16667 17.0002H8.83333ZM17 8.8335C21.5105 8.8335 25.1667 12.4896 25.1667 17.0002H37.1667C37.1667 5.8622 28.138 -3.1665 17 -3.1665V8.8335ZM25.1667 17.0002C25.1667 21.5107 21.5105 25.1668 17 25.1668V37.1668C28.138 37.1668 37.1667 28.1381 37.1667 17.0002H25.1667ZM19.8305 26.9092L29.8464 16.8919L21.3605 8.40724L11.3446 18.4245L19.8305 26.9092ZM29.8461 8.40694L27.8429 6.40377L19.3576 14.8891L21.3608 16.8922L29.8461 8.40694ZM19.3572 6.40415L11.3446 14.4182L19.8306 22.9028L27.8433 14.8887L19.3572 6.40415ZM19.8302 14.4179L15.8225 10.4101L7.33719 18.8954L11.3449 22.9031L19.8302 14.4179ZM7.33719 10.4101L5.33402 12.4133L13.8193 20.8986L15.8225 18.8954L7.33719 10.4101ZM5.33402 20.8986L11.3449 26.9095L19.8302 18.4242L13.8193 12.4133L5.33402 20.8986Z" fill="url(#paint0_linear_0_300)" mask="url(#path-1-inside-1_0_300)"/>
<defs>
<linearGradient id="paint0_linear_0_300" x1="-0.810181" y1="15.0522" x2="15.7685" y2="35.5498" gradientUnits="userSpaceOnUse">
<stop stop-color="#9AFFDB"/>
<stop offset="1" stop-color="#1ECDC8"/>
</linearGradient>
</defs>
</svg>
